<mxfile host="app.diagrams.net" agent="Mozilla/5.0 (Windows NT 10.0; Win64; x64) AppleWebKit/537.36 (KHTML, like Gecko) Chrome/137.0.0.0 Safari/537.36 Edg/137.0.0.0" version="27.0.9">
  <diagram name="Page-1" id="FoGwzNI2L2qQ2lyo0fvc">
    <mxGraphModel dx="2038" dy="2209" grid="1" gridSize="10" guides="1" tooltips="1" connect="1" arrows="1" fold="1" page="1" pageScale="1" pageWidth="827" pageHeight="1169" math="0" shadow="0">
      <root>
        <mxCell id="0" />
        <mxCell id="1" parent="0" />
        <mxCell id="DKvXnGrd76LMYUC1vWfy-3" value="&lt;font&gt;Research Articles&lt;/font&gt;" style="rounded=1;whiteSpace=wrap;html=1;fillColor=#d5e8d4;strokeColor=#82b366;sketch=1;curveFitting=1;jiggle=2;shadow=1;glass=0;fontFamily=Times New Roman;fontSize=30;" vertex="1" parent="1">
          <mxGeometry x="-80" y="-150" width="160" height="100" as="geometry" />
        </mxCell>
        <mxCell id="DKvXnGrd76LMYUC1vWfy-18" style="edgeStyle=orthogonalEdgeStyle;rounded=1;orthogonalLoop=1;jettySize=auto;html=1;exitX=1;exitY=0.5;exitDx=0;exitDy=0;entryX=0;entryY=0.5;entryDx=0;entryDy=0;" edge="1" parent="1" source="DKvXnGrd76LMYUC1vWfy-4" target="DKvXnGrd76LMYUC1vWfy-6">
          <mxGeometry relative="1" as="geometry" />
        </mxCell>
        <mxCell id="DKvXnGrd76LMYUC1vWfy-4" value="&lt;span&gt;Create Vector Store&lt;/span&gt;" style="rounded=1;whiteSpace=wrap;html=1;sketch=1;curveFitting=1;jiggle=2;shadow=1;fillColor=#dae8fc;strokeColor=#6c8ebf;fontFamily=Times New Roman;fontSize=30;" vertex="1" parent="1">
          <mxGeometry x="-100" y="250" width="260" height="90" as="geometry" />
        </mxCell>
        <mxCell id="DKvXnGrd76LMYUC1vWfy-17" style="edgeStyle=orthogonalEdgeStyle;rounded=0;orthogonalLoop=1;jettySize=auto;html=1;exitX=0.5;exitY=1;exitDx=0;exitDy=0;entryX=0.5;entryY=0;entryDx=0;entryDy=0;" edge="1" parent="1" source="DKvXnGrd76LMYUC1vWfy-5" target="DKvXnGrd76LMYUC1vWfy-4">
          <mxGeometry relative="1" as="geometry" />
        </mxCell>
        <mxCell id="DKvXnGrd76LMYUC1vWfy-5" value="&lt;span&gt;Creating Embeddings&lt;/span&gt;" style="rounded=1;whiteSpace=wrap;html=1;fillColor=#f8cecc;strokeColor=#b85450;sketch=1;curveFitting=1;jiggle=2;shadow=1;glass=0;fontFamily=Times New Roman;fontSize=30;" vertex="1" parent="1">
          <mxGeometry x="-90" y="60" width="240" height="80" as="geometry" />
        </mxCell>
        <mxCell id="DKvXnGrd76LMYUC1vWfy-23" style="edgeStyle=orthogonalEdgeStyle;rounded=1;orthogonalLoop=1;jettySize=auto;html=1;exitX=0.5;exitY=1;exitDx=0;exitDy=0;curved=0;" edge="1" parent="1" source="DKvXnGrd76LMYUC1vWfy-6" target="DKvXnGrd76LMYUC1vWfy-9">
          <mxGeometry relative="1" as="geometry" />
        </mxCell>
        <mxCell id="DKvXnGrd76LMYUC1vWfy-6" value="&lt;span&gt;Retrieve most relevant docs&lt;/span&gt;" style="rounded=1;whiteSpace=wrap;html=1;sketch=1;curveFitting=1;jiggle=2;shadow=1;fillColor=#d5e8d4;strokeColor=#82b366;fontFamily=Times New Roman;fontSize=30;" vertex="1" parent="1">
          <mxGeometry x="340" y="245" width="180" height="100" as="geometry" />
        </mxCell>
        <mxCell id="DKvXnGrd76LMYUC1vWfy-27" style="edgeStyle=orthogonalEdgeStyle;rounded=1;orthogonalLoop=1;jettySize=auto;html=1;exitX=0.5;exitY=1;exitDx=0;exitDy=0;entryX=1;entryY=0.5;entryDx=0;entryDy=0;" edge="1" parent="1" source="DKvXnGrd76LMYUC1vWfy-7" target="DKvXnGrd76LMYUC1vWfy-5">
          <mxGeometry relative="1" as="geometry" />
        </mxCell>
        <mxCell id="DKvXnGrd76LMYUC1vWfy-7" value="&lt;span&gt;Splitting and Chunking&lt;/span&gt;" style="rounded=1;whiteSpace=wrap;html=1;sketch=1;curveFitting=1;jiggle=2;fillColor=#fff2cc;strokeColor=#d6b656;shadow=1;glass=0;fontFamily=Times New Roman;fontSize=30;" vertex="1" parent="1">
          <mxGeometry x="440" y="-110" width="210" height="90" as="geometry" />
        </mxCell>
        <mxCell id="DKvXnGrd76LMYUC1vWfy-21" style="edgeStyle=orthogonalEdgeStyle;rounded=1;orthogonalLoop=1;jettySize=auto;html=1;exitX=0;exitY=0.5;exitDx=0;exitDy=0;entryX=1;entryY=0.5;entryDx=0;entryDy=0;curved=0;" edge="1" parent="1" source="DKvXnGrd76LMYUC1vWfy-8" target="DKvXnGrd76LMYUC1vWfy-6">
          <mxGeometry relative="1" as="geometry" />
        </mxCell>
        <mxCell id="DKvXnGrd76LMYUC1vWfy-8" value="&lt;font&gt;User Query&lt;/font&gt;" style="rounded=1;whiteSpace=wrap;html=1;sketch=1;curveFitting=1;jiggle=2;shadow=1;fillColor=#e1d5e7;strokeColor=#9673a6;fontFamily=Times New Roman;fontSize=30;" vertex="1" parent="1">
          <mxGeometry x="700" y="250" width="190" height="90" as="geometry" />
        </mxCell>
        <mxCell id="DKvXnGrd76LMYUC1vWfy-24" style="edgeStyle=orthogonalEdgeStyle;rounded=1;orthogonalLoop=1;jettySize=auto;html=1;exitX=1;exitY=0.5;exitDx=0;exitDy=0;entryX=0;entryY=0.5;entryDx=0;entryDy=0;" edge="1" parent="1" source="DKvXnGrd76LMYUC1vWfy-9" target="DKvXnGrd76LMYUC1vWfy-11">
          <mxGeometry relative="1" as="geometry" />
        </mxCell>
        <mxCell id="DKvXnGrd76LMYUC1vWfy-9" value="&lt;span&gt;Rerank Retrieved docs&lt;/span&gt;" style="rounded=1;whiteSpace=wrap;html=1;sketch=1;curveFitting=1;jiggle=2;shadow=1;fillColor=#fff2cc;strokeColor=#d6b656;fontFamily=Times New Roman;fontSize=30;" vertex="1" parent="1">
          <mxGeometry x="50" y="490" width="250" height="100" as="geometry" />
        </mxCell>
        <mxCell id="DKvXnGrd76LMYUC1vWfy-10" value="&lt;span&gt;Final Researcher Answer&lt;/span&gt;" style="rounded=1;whiteSpace=wrap;html=1;sketch=1;curveFitting=1;jiggle=2;shadow=1;fillColor=#d5e8d4;strokeColor=#82b366;fontFamily=Times New Roman;fontSize=30;" vertex="1" parent="1">
          <mxGeometry x="770" y="750" width="200" height="120" as="geometry" />
        </mxCell>
        <mxCell id="DKvXnGrd76LMYUC1vWfy-28" style="edgeStyle=orthogonalEdgeStyle;rounded=1;orthogonalLoop=1;jettySize=auto;html=1;exitX=0.5;exitY=1;exitDx=0;exitDy=0;entryX=0.5;entryY=0;entryDx=0;entryDy=0;curved=0;" edge="1" parent="1" source="DKvXnGrd76LMYUC1vWfy-11" target="DKvXnGrd76LMYUC1vWfy-25">
          <mxGeometry relative="1" as="geometry" />
        </mxCell>
        <mxCell id="DKvXnGrd76LMYUC1vWfy-11" value="&lt;span&gt;Prepare Prompt&lt;/span&gt;" style="rounded=1;whiteSpace=wrap;html=1;sketch=1;curveFitting=1;jiggle=2;shadow=1;fillColor=#f8cecc;strokeColor=#b85450;fontFamily=Times New Roman;fontSize=30;" vertex="1" parent="1">
          <mxGeometry x="480" y="480" width="210" height="120" as="geometry" />
        </mxCell>
        <mxCell id="DKvXnGrd76LMYUC1vWfy-15" style="edgeStyle=orthogonalEdgeStyle;rounded=1;orthogonalLoop=1;jettySize=auto;html=1;exitX=1;exitY=0.5;exitDx=0;exitDy=0;entryX=-0.023;entryY=0.633;entryDx=0;entryDy=0;entryPerimeter=0;curved=0;" edge="1" parent="1" source="DKvXnGrd76LMYUC1vWfy-3" target="DKvXnGrd76LMYUC1vWfy-7">
          <mxGeometry relative="1" as="geometry" />
        </mxCell>
        <mxCell id="DKvXnGrd76LMYUC1vWfy-26" style="edgeStyle=orthogonalEdgeStyle;rounded=1;orthogonalLoop=1;jettySize=auto;html=1;exitX=1;exitY=0.5;exitDx=0;exitDy=0;entryX=0;entryY=0.5;entryDx=0;entryDy=0;" edge="1" parent="1" source="DKvXnGrd76LMYUC1vWfy-25" target="DKvXnGrd76LMYUC1vWfy-10">
          <mxGeometry relative="1" as="geometry" />
        </mxCell>
        <mxCell id="DKvXnGrd76LMYUC1vWfy-25" value="&lt;span&gt;Generate Answer&lt;/span&gt;" style="rounded=1;whiteSpace=wrap;html=1;sketch=1;curveFitting=1;jiggle=2;shadow=1;fillColor=#dae8fc;strokeColor=#6c8ebf;fontFamily=Times New Roman;fontSize=30;" vertex="1" parent="1">
          <mxGeometry x="280" y="760" width="240" height="100" as="geometry" />
        </mxCell>
      </root>
    </mxGraphModel>
  </diagram>
</mxfile>
